<svg xmlns="http://www.w3.org/2000/svg" width="525.969" height="175.729" viewBox="0 0 525.969 175.729">
  <g id="Group_2005" data-name="Group 2005" transform="translate(-297.869 -380.064)">
    <path id="Path_3323" data-name="Path 3323" d="M157.632.655h-41.5a10.137,10.137,0,0,1-9.982-10.128V-81.036c0-6.271,4.135-10.267,10.981-10.267h40.5a21.427,21.427,0,0,1,15.407,6.278,20.175,20.175,0,0,1,6.562,15.4v8.811c0,4.564-1.859,8.553-5.7,11.98,3.843,2.851,5.7,6.847,5.7,11.98v15.83a20.568,20.568,0,0,1-6.417,15.4A21.547,21.547,0,0,1,157.632.655m2.289-72.562H125.687v17.047H159.92Zm0,36.3H125.687V-18.74H159.92ZM242.379.655H212.716a21.1,21.1,0,0,1-15.546-6.423,21.522,21.522,0,0,1-6.278-15.546v-28.8a21,21,0,0,1,6.278-15.407,21.119,21.119,0,0,1,15.546-6.417h29.663a21.119,21.119,0,0,1,15.546,6.417,20.569,20.569,0,0,1,6.417,15.407v28.8a21.073,21.073,0,0,1-6.417,15.546A21.1,21.1,0,0,1,242.379.655ZM244.661-52.4H210.434v33.374h34.227ZM352.132.655c-5.848,0-9.844-4-9.844-9.843V-71.794H328.171V-9.188c0,5.848-3.7,9.843-9.552,9.843s-9.559-4-9.559-9.843V-71.794H294.943V-9.188c0,5.848-4,9.843-9.843,9.843-5.7,0-9.552-4-9.552-9.843V-69.512a21.423,21.423,0,0,1,6.278-15.4,20.544,20.544,0,0,1,15.4-6.417h42.781a20.559,20.559,0,0,1,15.407,6.417,21.444,21.444,0,0,1,6.271,15.4V-9.188C361.684-3.486,357.834.655,352.132.655Zm74.394-35.967V-51.962H392.154v16.651ZM436.363.4c-5.848,0-9.837-4-9.837-9.843v-6.523H392.154v6.523c0,5.848-4,9.843-9.843,9.843s-9.7-4-9.7-9.843V-49.68a21,21,0,0,1,6.278-15.407A21.093,21.093,0,0,1,394.436-71.5H424.1a21.093,21.093,0,0,1,15.546,6.417,20.568,20.568,0,0,1,6.417,15.407V-9.446C446.061-3.744,442.066.4,436.363.4Z" transform="translate(377.777 491.845)" fill="#fff" fill-rule="evenodd"/>
    <path id="Path_3322" data-name="Path 3322" d="M79.811-54.122a4.614,4.614,0,0,1-2.09-3.619V-79.67a5.966,5.966,0,0,0,.926.668l54.317,31.363a7.08,7.08,0,0,0,6.628,0L193.917-79a6.485,6.485,0,0,0,.8-.562v21.83a4.594,4.594,0,0,1-2.09,3.612L138.31-22.759a4.6,4.6,0,0,1-4.174,0L79.811-54.122Z" transform="translate(244.725 578.052)" fill="#f7901e"/>
    <path id="Path_3321" data-name="Path 3321" d="M166.516.677A4.627,4.627,0,0,1,164.432,4.3l-19,10.968a5.581,5.581,0,0,0,.119-1.131V-48.593a7.049,7.049,0,0,0-3.314-5.742L87.921-85.7a6.856,6.856,0,0,0-.893-.417L105.934-97.03a4.637,4.637,0,0,1,4.174,0l54.324,31.363a4.626,4.626,0,0,1,2.084,3.618V.677Z" transform="translate(296.984 477.787)" fill="#ef4023"/>
    <path id="Path_3320" data-name="Path 3320" d="M130.42-97.055a4.6,4.6,0,0,1,4.174,0l19,10.968a5.459,5.459,0,0,0-1.039.463L98.231-54.261a7.05,7.05,0,0,0-3.314,5.742V14.2a6.118,6.118,0,0,0,.086.979L76.1,4.264A4.614,4.614,0,0,1,74.006.645l.007-62.719A4.606,4.606,0,0,1,76.1-65.692L130.42-97.055Z" transform="translate(223.863 477.62)" fill="#c028b9"/>
  </g>
</svg>
